<svg width="400" height="400" viewBox="0 0 400 400" xmlns="http://www.w3.org/2000/svg">
  <defs>
    <linearGradient id="cardGradient" x1="0%" y1="0%" x2="100%" y2="100%">
      <stop offset="0%" style="stop-color:#4A90E2;stop-opacity:1" />
      <stop offset="100%" style="stop-color:#357ABD;stop-opacity:1" />
    </linearGradient>
    <linearGradient id="heartGradient" x1="0%" y1="0%" x2="100%" y2="100%">
      <stop offset="0%" style="stop-color:#FF6B9D;stop-opacity:1" />
      <stop offset="100%" style="stop-color:#FF8E9B;stop-opacity:1" />
    </linearGradient>
  </defs>
  
  <!-- Fondo -->
  <rect width="400" height="400" fill="#F8F9FA" rx="20"/>
  
  <!-- Tarjetas dispersas -->
  <!-- Tarjeta 1 -->
  <g transform="translate(50, 80) rotate(-15)">
    <rect x="0" y="0" width="80" height="120" rx="10" fill="url(#cardGradient)" stroke="white" stroke-width="3"/>
    <text x="40" y="60" text-anchor="middle" fill="white" font-family="Arial, sans-serif" font-size="12" font-weight="bold">
      RESPIRA
    </text>
    <path d="M40,70 C37,65 32,65 32,70 C32,65 27,65 24,70 C27,75 32,80 32,80 C32,80 37,75 40,70 Z" fill="url(#heartGradient)"/>
  </g>
  
  <!-- Tarjeta 2 -->
  <g transform="translate(200, 60) rotate(10)">
    <rect x="0" y="0" width="80" height="120" rx="10" fill="#7ED321" stroke="white" stroke-width="3"/>
    <text x="40" y="50" text-anchor="middle" fill="white" font-family="Arial, sans-serif" font-size="10" font-weight="bold">
      CALMA
    </text>
    <circle cx="40" cy="70" r="15" fill="none" stroke="white" stroke-width="2"/>
    <circle cx="40" cy="70" r="8" fill="white" opacity="0.8"/>
  </g>
  
  <!-- Tarjeta 3 -->
  <g transform="translate(120, 200) rotate(-5)">
    <rect x="0" y="0" width="80" height="120" rx="10" fill="#F5A623" stroke="white" stroke-width="3"/>
    <text x="40" y="55" text-anchor="middle" fill="white" font-family="Arial, sans-serif" font-size="11" font-weight="bold">
      ALEGRÍA
    </text>
    <text x="40" y="75" text-anchor="middle" fill="white" font-family="Arial, sans-serif" font-size="24">
      😊
    </text>
  </g>
  
  <!-- Tarjeta 4 -->
  <g transform="translate(280, 180) rotate(20)">
    <rect x="0" y="0" width="80" height="120" rx="10" fill="#E74C3C" stroke="white" stroke-width="3"/>
    <text x="40" y="50" text-anchor="middle" fill="white" font-family="Arial, sans-serif" font-size="9" font-weight="bold">
      ENFOCA
    </text>
    <polygon points="40,65 35,75 40,85 45,75" fill="white"/>
    <circle cx="40" cy="85" r="3" fill="white"/>
  </g>
  
  <!-- Tarjeta 5 -->
  <g transform="translate(60, 280) rotate(5)">
    <rect x="0" y="0" width="80" height="120" rx="10" fill="#9B59B6" stroke="white" stroke-width="3"/>
    <text x="40" y="55" text-anchor="middle" fill="white" font-family="Arial, sans-serif" font-size="10" font-weight="bold">
      GRATITUD
    </text>
    <text x="40" y="75" text-anchor="middle" fill="white" font-family="Arial, sans-serif" font-size="20">
      ✨
    </text>
  </g>
  
  <!-- Tarjeta 6 -->
  <g transform="translate(220, 300) rotate(-10)">
    <rect x="0" y="0" width="80" height="120" rx="10" fill="#1ABC9C" stroke="white" stroke-width="3"/>
    <text x="40" y="50" text-anchor="middle" fill="white" font-family="Arial, sans-serif" font-size="9" font-weight="bold">
      ESCUCHA
    </text>
    <circle cx="40" cy="70" r="12" fill="none" stroke="white" stroke-width="2"/>
    <path d="M40,65 Q45,70 40,75 Q35,70 40,65" fill="white"/>
  </g>
  
  <!-- Elementos decorativos -->
  <!-- Estrellas -->
  <g fill="#FFD700" opacity="0.8">
    <polygon points="30,30 35,45 50,45 37,55 42,70 30,60 18,70 23,55 10,45 25,45"/>
    <polygon points="350,50 353,60 363,60 356,66 359,76 350,71 341,76 344,66 337,60 347,60"/>
    <polygon points="370,350 372,358 380,358 374,362 376,370 370,366 364,370 366,362 360,358 368,358"/>
  </g>
  
  <!-- Corazones pequeños -->
  <g fill="#FF69B4" opacity="0.6">
    <path d="M80,40 C78,36 74,36 74,40 C74,36 70,36 68,40 C70,44 74,48 74,48 C74,48 78,44 80,40 Z"/>
    <path d="M320,40 C318,36 314,36 314,40 C314,36 310,36 308,40 C310,44 314,48 314,48 C314,48 318,44 320,40 Z"/>
  </g>
  
  <!-- Título -->
  <text x="200" y="40" text-anchor="middle" fill="#2C3E50" font-family="Arial, sans-serif" font-size="24" font-weight="bold">
    Juego de Cartas
  </text>
  <text x="200" y="65" text-anchor="middle" fill="#7F8C8D" font-family="Arial, sans-serif" font-size="14">
    Mindfulness para Niños
  </text>
  
  <!-- Precio -->
  <rect x="150" y="350" width="100" height="40" rx="20" fill="#4A90E2"/>
  <text x="200" y="375" text-anchor="middle" fill="white" font-family="Arial, sans-serif" font-size="18" font-weight="bold">
    $23 USD
  </text>
</svg>
